<?xml version="1.0" encoding="UTF-8"?>
<svg xmlns="http://www.w3.org/2000/svg" xmlns:xlink="http://www.w3.org/1999/xlink" width="1024px" height="1024px" viewBox="0 0 1024 1024" version="1.1">
<g id="surface1">
<rect x="0" y="0" width="1024" height="1024" style="fill:rgb(100%,65.098041%,0%);fill-opacity:1;stroke:none;"/>
<path style=" stroke:none;fill-rule:nonzero;fill:rgb(0%,0%,0%);fill-opacity:1;" d="M 418.324219 57.457031 C 418.324219 46.671875 409.578125 37.925781 398.792969 37.925781 C 388.003906 37.925781 379.257812 46.671875 379.257812 57.457031 C 379.257812 68.246094 388.003906 76.988281 398.792969 76.988281 C 409.578125 76.988281 418.324219 68.246094 418.324219 57.457031 Z M 418.324219 57.457031 "/>
<path style=" stroke:none;fill-rule:nonzero;fill:rgb(0%,0%,0%);fill-opacity:1;" d="M 532.101562 57.457031 C 532.101562 46.671875 523.355469 37.925781 512.570312 37.925781 C 501.78125 37.925781 493.035156 46.671875 493.035156 57.457031 C 493.035156 68.246094 501.78125 76.988281 512.570312 76.988281 C 523.355469 76.988281 532.101562 68.246094 532.101562 57.457031 Z M 532.101562 57.457031 "/>
<path style=" stroke:none;fill-rule:nonzero;fill:rgb(0%,0%,0%);fill-opacity:1;" d="M 607.953125 57.457031 C 607.953125 46.671875 599.207031 37.925781 588.421875 37.925781 C 577.632812 37.925781 568.890625 46.671875 568.890625 57.457031 C 568.890625 68.246094 577.632812 76.988281 588.421875 76.988281 C 599.207031 76.988281 607.953125 68.246094 607.953125 57.457031 Z M 607.953125 57.457031 "/>
<path style=" stroke:none;fill-rule:nonzero;fill:rgb(0%,0%,0%);fill-opacity:1;" d="M 683.804688 57.457031 C 683.804688 46.671875 675.058594 37.925781 664.273438 37.925781 C 653.484375 37.925781 644.742188 46.671875 644.742188 57.457031 C 644.742188 68.246094 653.484375 76.988281 664.273438 76.988281 C 675.058594 76.988281 683.804688 68.246094 683.804688 57.457031 Z M 683.804688 57.457031 "/>
<path style=" stroke:none;fill-rule:nonzero;fill:rgb(0%,0%,0%);fill-opacity:1;" d="M 494.175781 95.382812 C 494.175781 84.597656 485.429688 75.851562 474.644531 75.851562 C 463.855469 75.851562 455.109375 84.597656 455.109375 95.382812 C 455.109375 106.171875 463.855469 114.914062 474.644531 114.914062 C 485.429688 114.914062 494.175781 106.171875 494.175781 95.382812 Z M 494.175781 95.382812 "/>
<path style=" stroke:none;fill-rule:nonzero;fill:rgb(0%,0%,0%);fill-opacity:1;" d="M 645.878906 95.382812 C 645.878906 84.597656 637.132812 75.851562 626.347656 75.851562 C 615.558594 75.851562 606.816406 84.597656 606.816406 95.382812 C 606.816406 106.171875 615.558594 114.914062 626.347656 114.914062 C 637.132812 114.914062 645.878906 106.171875 645.878906 95.382812 Z M 645.878906 95.382812 "/>
<path style=" stroke:none;fill-rule:nonzero;fill:rgb(0%,0%,0%);fill-opacity:1;" d="M 380.398438 152.839844 L 341.332031 152.839844 L 341.332031 133.308594 C 341.332031 122.242188 349.796875 113.777344 360.863281 113.777344 C 371.933594 113.777344 380.398438 122.242188 380.398438 133.308594 Z M 380.398438 152.839844 "/>
<path style=" stroke:none;fill-rule:nonzero;fill:rgb(0%,0%,0%);fill-opacity:1;" d="M 532.101562 152.839844 L 493.035156 152.839844 L 493.035156 133.308594 C 493.035156 122.242188 501.5 113.777344 512.570312 113.777344 C 523.636719 113.777344 532.101562 122.242188 532.101562 133.308594 Z M 532.101562 152.839844 "/>
<path style=" stroke:none;fill-rule:nonzero;fill:rgb(0%,0%,0%);fill-opacity:1;" d="M 683.804688 133.308594 C 683.804688 122.523438 675.058594 113.777344 664.273438 113.777344 C 653.484375 113.777344 644.742188 122.523438 644.742188 133.308594 C 644.742188 144.097656 653.484375 152.839844 664.273438 152.839844 C 675.058594 152.839844 683.804688 144.097656 683.804688 133.308594 Z M 683.804688 133.308594 "/>
<path style=" stroke:none;fill-rule:nonzero;fill:rgb(0%,0%,0%);fill-opacity:1;" d="M 341.332031 151.703125 L 380.398438 151.703125 L 380.398438 190.765625 L 341.332031 190.765625 Z M 341.332031 151.703125 "/>
<path style=" stroke:none;fill-rule:nonzero;fill:rgb(0%,0%,0%);fill-opacity:1;" d="M 418.324219 190.765625 L 379.257812 190.765625 L 379.257812 151.703125 L 398.792969 151.703125 C 409.859375 151.703125 418.324219 160.167969 418.324219 171.234375 Z M 418.324219 190.765625 "/>
<path style=" stroke:none;fill-rule:nonzero;fill:rgb(0%,0%,0%);fill-opacity:1;" d="M 494.175781 190.765625 L 455.109375 190.765625 L 455.109375 171.234375 C 455.109375 160.167969 463.574219 151.703125 474.644531 151.703125 L 494.175781 151.703125 Z M 494.175781 190.765625 "/>
<path style=" stroke:none;fill-rule:nonzero;fill:rgb(0%,0%,0%);fill-opacity:1;" d="M 493.035156 151.703125 L 532.101562 151.703125 L 532.101562 190.765625 L 493.035156 190.765625 Z M 493.035156 151.703125 "/>
<path style=" stroke:none;fill-rule:nonzero;fill:rgb(0%,0%,0%);fill-opacity:1;" d="M 530.964844 151.703125 L 570.027344 151.703125 L 570.027344 190.765625 L 530.964844 190.765625 Z M 530.964844 151.703125 "/>
<path style=" stroke:none;fill-rule:nonzero;fill:rgb(0%,0%,0%);fill-opacity:1;" d="M 607.953125 190.765625 L 568.890625 190.765625 L 568.890625 151.703125 L 588.421875 151.703125 C 599.488281 151.703125 607.953125 160.167969 607.953125 171.234375 Z M 607.953125 190.765625 "/>
<path style=" stroke:none;fill-rule:nonzero;fill:rgb(0%,0%,0%);fill-opacity:1;" d="M 341.332031 189.628906 L 380.398438 189.628906 L 380.398438 228.691406 L 341.332031 228.691406 Z M 341.332031 189.628906 "/>
<path style=" stroke:none;fill-rule:nonzero;fill:rgb(0%,0%,0%);fill-opacity:1;" d="M 379.257812 189.628906 L 418.324219 189.628906 L 418.324219 228.691406 L 379.257812 228.691406 Z M 379.257812 189.628906 "/>
<path style=" stroke:none;fill-rule:nonzero;fill:rgb(0%,0%,0%);fill-opacity:1;" d="M 455.109375 189.628906 L 494.175781 189.628906 L 494.175781 228.691406 L 455.109375 228.691406 Z M 455.109375 189.628906 "/>
<path style=" stroke:none;fill-rule:nonzero;fill:rgb(0%,0%,0%);fill-opacity:1;" d="M 588.421875 228.691406 C 577.351562 228.691406 568.890625 220.230469 568.890625 209.160156 L 568.890625 189.628906 L 607.953125 189.628906 L 607.953125 209.160156 C 607.953125 220.230469 599.488281 228.691406 588.421875 228.691406 Z M 588.421875 228.691406 "/>
<path style=" stroke:none;fill-rule:nonzero;fill:rgb(0%,0%,0%);fill-opacity:1;" d="M 341.332031 227.554688 L 380.398438 227.554688 L 380.398438 266.621094 L 341.332031 266.621094 Z M 341.332031 227.554688 "/>
<path style=" stroke:none;fill-rule:nonzero;fill:rgb(0%,0%,0%);fill-opacity:1;" d="M 379.257812 227.554688 L 418.324219 227.554688 L 418.324219 266.621094 L 379.257812 266.621094 Z M 379.257812 227.554688 "/>
<path style=" stroke:none;fill-rule:nonzero;fill:rgb(0%,0%,0%);fill-opacity:1;" d="M 417.183594 227.554688 L 456.25 227.554688 L 456.25 266.621094 L 417.183594 266.621094 Z M 417.183594 227.554688 "/>
<path style=" stroke:none;fill-rule:nonzero;fill:rgb(0%,0%,0%);fill-opacity:1;" d="M 474.644531 266.621094 L 455.109375 266.621094 L 455.109375 227.554688 L 494.175781 227.554688 L 494.175781 247.085938 C 494.175781 258.15625 485.710938 266.621094 474.644531 266.621094 Z M 474.644531 266.621094 "/>
<path style=" stroke:none;fill-rule:nonzero;fill:rgb(0%,0%,0%);fill-opacity:1;" d="M 645.878906 266.621094 L 626.347656 266.621094 C 615.277344 266.621094 606.816406 258.15625 606.816406 247.085938 C 606.816406 236.019531 615.277344 227.554688 626.347656 227.554688 L 645.878906 227.554688 C 645.878906 227.554688 645.878906 266.621094 645.878906 266.621094 Z M 645.878906 266.621094 "/>
<path style=" stroke:none;fill-rule:nonzero;fill:rgb(0%,0%,0%);fill-opacity:1;" d="M 683.804688 266.621094 L 644.742188 266.621094 L 644.742188 227.554688 L 664.273438 227.554688 C 675.339844 227.554688 683.804688 236.019531 683.804688 247.085938 Z M 683.804688 266.621094 "/>
<path style=" stroke:none;fill-rule:nonzero;fill:rgb(0%,0%,0%);fill-opacity:1;" d="M 341.332031 265.480469 L 380.398438 265.480469 L 380.398438 304.546875 L 341.332031 304.546875 Z M 341.332031 265.480469 "/>
<path style=" stroke:none;fill-rule:nonzero;fill:rgb(0%,0%,0%);fill-opacity:1;" d="M 436.71875 304.546875 C 425.648438 304.546875 417.183594 296.082031 417.183594 285.011719 L 417.183594 265.480469 L 456.25 265.480469 L 456.25 285.011719 C 456.25 296.082031 447.785156 304.546875 436.71875 304.546875 Z M 436.71875 304.546875 "/>
<path style=" stroke:none;fill-rule:nonzero;fill:rgb(0%,0%,0%);fill-opacity:1;" d="M 532.101562 304.546875 L 493.035156 304.546875 L 493.035156 285.011719 C 493.035156 273.945312 501.5 265.480469 512.570312 265.480469 C 523.636719 265.480469 532.101562 273.945312 532.101562 285.011719 Z M 532.101562 304.546875 "/>
<path style=" stroke:none;fill-rule:nonzero;fill:rgb(0%,0%,0%);fill-opacity:1;" d="M 607.953125 285.011719 C 607.953125 274.226562 599.207031 265.480469 588.421875 265.480469 C 577.632812 265.480469 568.890625 274.226562 568.890625 285.011719 C 568.890625 295.800781 577.632812 304.546875 588.421875 304.546875 C 599.207031 304.546875 607.953125 295.800781 607.953125 285.011719 Z M 607.953125 285.011719 "/>
<path style=" stroke:none;fill-rule:nonzero;fill:rgb(0%,0%,0%);fill-opacity:1;" d="M 664.273438 304.546875 C 653.203125 304.546875 644.742188 296.082031 644.742188 285.011719 L 644.742188 265.480469 L 683.804688 265.480469 L 683.804688 285.011719 C 683.804688 296.082031 675.339844 304.546875 664.273438 304.546875 Z M 664.273438 304.546875 "/>
<path style=" stroke:none;fill-rule:nonzero;fill:rgb(0%,0%,0%);fill-opacity:1;" d="M 380.398438 342.472656 L 360.863281 342.472656 C 349.796875 342.472656 341.332031 334.007812 341.332031 322.9375 L 341.332031 303.40625 L 380.398438 303.40625 Z M 380.398438 342.472656 "/>
<path style=" stroke:none;fill-rule:nonzero;fill:rgb(0%,0%,0%);fill-opacity:1;" d="M 418.324219 342.472656 L 379.257812 342.472656 L 379.257812 303.40625 L 398.792969 303.40625 C 409.859375 303.40625 418.324219 311.871094 418.324219 322.9375 Z M 418.324219 342.472656 "/>
<path style=" stroke:none;fill-rule:nonzero;fill:rgb(0%,0%,0%);fill-opacity:1;" d="M 512.570312 342.472656 C 501.5 342.472656 493.035156 334.007812 493.035156 322.9375 L 493.035156 303.40625 L 532.101562 303.40625 L 532.101562 322.9375 C 532.101562 334.007812 523.636719 342.472656 512.570312 342.472656 Z M 512.570312 342.472656 "/>
<path style=" stroke:none;fill-rule:nonzero;fill:rgb(0%,0%,0%);fill-opacity:1;" d="M 76.988281 360.863281 C 76.988281 350.078125 68.246094 341.332031 57.457031 341.332031 C 46.671875 341.332031 37.925781 350.078125 37.925781 360.863281 C 37.925781 371.652344 46.671875 380.398438 57.457031 380.398438 C 68.246094 380.398438 76.988281 371.652344 76.988281 360.863281 Z M 76.988281 360.863281 "/>
<path style=" stroke:none;fill-rule:nonzero;fill:rgb(0%,0%,0%);fill-opacity:1;" d="M 152.839844 380.398438 L 133.308594 380.398438 C 122.242188 380.398438 113.777344 371.933594 113.777344 360.863281 C 113.777344 349.796875 122.242188 341.332031 133.308594 341.332031 L 152.839844 341.332031 C 152.839844 341.332031 152.839844 380.398438 152.839844 380.398438 Z M 152.839844 380.398438 "/>
<path style=" stroke:none;fill-rule:nonzero;fill:rgb(0%,0%,0%);fill-opacity:1;" d="M 151.703125 341.332031 L 190.765625 341.332031 L 190.765625 380.398438 L 151.703125 380.398438 Z M 151.703125 341.332031 "/>
<path style=" stroke:none;fill-rule:nonzero;fill:rgb(0%,0%,0%);fill-opacity:1;" d="M 189.628906 341.332031 L 228.691406 341.332031 L 228.691406 380.398438 L 189.628906 380.398438 Z M 189.628906 341.332031 "/>
<path style=" stroke:none;fill-rule:nonzero;fill:rgb(0%,0%,0%);fill-opacity:1;" d="M 227.554688 341.332031 L 266.621094 341.332031 L 266.621094 380.398438 L 227.554688 380.398438 Z M 227.554688 341.332031 "/>
<path style=" stroke:none;fill-rule:nonzero;fill:rgb(0%,0%,0%);fill-opacity:1;" d="M 285.011719 380.398438 L 265.480469 380.398438 L 265.480469 341.332031 L 285.011719 341.332031 C 296.082031 341.332031 304.546875 349.796875 304.546875 360.863281 C 304.546875 371.933594 296.082031 380.398438 285.011719 380.398438 Z M 285.011719 380.398438 "/>
<path style=" stroke:none;fill-rule:nonzero;fill:rgb(0%,0%,0%);fill-opacity:1;" d="M 398.792969 380.398438 C 387.722656 380.398438 379.257812 371.933594 379.257812 360.863281 L 379.257812 341.332031 L 418.324219 341.332031 L 418.324219 360.863281 C 418.324219 371.933594 409.859375 380.398438 398.792969 380.398438 Z M 398.792969 380.398438 "/>
<path style=" stroke:none;fill-rule:nonzero;fill:rgb(0%,0%,0%);fill-opacity:1;" d="M 494.175781 360.863281 C 494.175781 350.078125 485.429688 341.332031 474.644531 341.332031 C 463.855469 341.332031 455.109375 350.078125 455.109375 360.863281 C 455.109375 371.652344 463.855469 380.398438 474.644531 380.398438 C 485.429688 380.398438 494.175781 371.652344 494.175781 360.863281 Z M 494.175781 360.863281 "/>
<path style=" stroke:none;fill-rule:nonzero;fill:rgb(0%,0%,0%);fill-opacity:1;" d="M 570.027344 380.398438 L 530.964844 380.398438 L 530.964844 360.863281 C 530.964844 349.796875 539.425781 341.332031 550.496094 341.332031 C 561.5625 341.332031 570.027344 349.796875 570.027344 360.863281 Z M 570.027344 380.398438 "/>
<path style=" stroke:none;fill-rule:nonzero;fill:rgb(0%,0%,0%);fill-opacity:1;" d="M 645.878906 360.863281 C 645.878906 350.078125 637.132812 341.332031 626.347656 341.332031 C 615.558594 341.332031 606.816406 350.078125 606.816406 360.863281 C 606.816406 371.652344 615.558594 380.398438 626.347656 380.398438 C 637.132812 380.398438 645.878906 371.652344 645.878906 360.863281 Z M 645.878906 360.863281 "/>
<path style=" stroke:none;fill-rule:nonzero;fill:rgb(0%,0%,0%);fill-opacity:1;" d="M 759.65625 380.398438 L 740.125 380.398438 C 729.054688 380.398438 720.59375 371.933594 720.59375 360.863281 C 720.59375 349.796875 729.054688 341.332031 740.125 341.332031 L 759.65625 341.332031 C 759.65625 341.332031 759.65625 380.398438 759.65625 380.398438 Z M 759.65625 380.398438 "/>
<path style=" stroke:none;fill-rule:nonzero;fill:rgb(0%,0%,0%);fill-opacity:1;" d="M 758.519531 341.332031 L 797.582031 341.332031 L 797.582031 380.398438 L 758.519531 380.398438 Z M 758.519531 341.332031 "/>
<path style=" stroke:none;fill-rule:nonzero;fill:rgb(0%,0%,0%);fill-opacity:1;" d="M 796.445312 341.332031 L 835.507812 341.332031 L 835.507812 380.398438 L 796.445312 380.398438 Z M 796.445312 341.332031 "/>
<path style=" stroke:none;fill-rule:nonzero;fill:rgb(0%,0%,0%);fill-opacity:1;" d="M 834.371094 341.332031 L 873.433594 341.332031 L 873.433594 380.398438 L 834.371094 380.398438 Z M 834.371094 341.332031 "/>
<path style=" stroke:none;fill-rule:nonzero;fill:rgb(0%,0%,0%);fill-opacity:1;" d="M 891.828125 380.398438 L 872.296875 380.398438 L 872.296875 341.332031 L 891.828125 341.332031 C 902.894531 341.332031 911.359375 349.796875 911.359375 360.863281 C 911.359375 371.933594 902.894531 380.398438 891.828125 380.398438 Z M 891.828125 380.398438 "/>
<path style=" stroke:none;fill-rule:nonzero;fill:rgb(0%,0%,0%);fill-opacity:1;" d="M 114.914062 418.324219 L 75.851562 418.324219 L 75.851562 398.792969 C 75.851562 387.722656 84.316406 379.257812 95.382812 379.257812 C 106.453125 379.257812 114.914062 387.722656 114.914062 398.792969 Z M 114.914062 418.324219 "/>
<path style=" stroke:none;fill-rule:nonzero;fill:rgb(0%,0%,0%);fill-opacity:1;" d="M 190.765625 418.324219 L 171.234375 418.324219 C 160.167969 418.324219 151.703125 409.859375 151.703125 398.792969 L 151.703125 379.257812 L 190.765625 379.257812 Z M 190.765625 418.324219 "/>
<path style=" stroke:none;fill-rule:nonzero;fill:rgb(0%,0%,0%);fill-opacity:1;" d="M 189.628906 379.257812 L 228.691406 379.257812 L 228.691406 418.324219 L 189.628906 418.324219 Z M 189.628906 379.257812 "/>
<path style=" stroke:none;fill-rule:nonzero;fill:rgb(0%,0%,0%);fill-opacity:1;" d="M 227.554688 379.257812 L 266.621094 379.257812 L 266.621094 418.324219 L 227.554688 418.324219 Z M 227.554688 379.257812 "/>
<path style=" stroke:none;fill-rule:nonzero;fill:rgb(0%,0%,0%);fill-opacity:1;" d="M 456.25 418.324219 L 417.183594 418.324219 L 417.183594 398.792969 C 417.183594 387.722656 425.648438 379.257812 436.71875 379.257812 C 447.785156 379.257812 456.25 387.722656 456.25 398.792969 Z M 456.25 418.324219 "/>
<path style=" stroke:none;fill-rule:nonzero;fill:rgb(0%,0%,0%);fill-opacity:1;" d="M 530.964844 379.257812 L 570.027344 379.257812 L 570.027344 418.324219 L 530.964844 418.324219 Z M 530.964844 379.257812 "/>
<path style=" stroke:none;fill-rule:nonzero;fill:rgb(0%,0%,0%);fill-opacity:1;" d="M 683.804688 418.324219 L 664.273438 418.324219 C 653.203125 418.324219 644.742188 409.859375 644.742188 398.792969 C 644.742188 387.722656 653.203125 379.257812 664.273438 379.257812 L 683.804688 379.257812 C 683.804688 379.257812 683.804688 418.324219 683.804688 418.324219 Z M 683.804688 418.324219 "/>
<path style=" stroke:none;fill-rule:nonzero;fill:rgb(0%,0%,0%);fill-opacity:1;" d="M 702.199219 418.324219 L 682.667969 418.324219 L 682.667969 379.257812 L 702.199219 379.257812 C 713.265625 379.257812 721.730469 387.722656 721.730469 398.792969 C 721.730469 409.859375 713.265625 418.324219 702.199219 418.324219 Z M 702.199219 418.324219 "/>
<path style=" stroke:none;fill-rule:nonzero;fill:rgb(0%,0%,0%);fill-opacity:1;" d="M 758.519531 379.257812 L 797.582031 379.257812 L 797.582031 418.324219 L 758.519531 418.324219 Z M 758.519531 379.257812 "/>
<path style=" stroke:none;fill-rule:nonzero;fill:rgb(0%,0%,0%);fill-opacity:1;" d="M 949.285156 418.324219 L 910.222656 418.324219 L 910.222656 398.792969 C 910.222656 387.722656 918.6875 379.257812 929.753906 379.257812 C 940.820312 379.257812 949.285156 387.722656 949.285156 398.792969 Z M 949.285156 418.324219 "/>
<path style=" stroke:none;fill-rule:nonzero;fill:rgb(0%,0%,0%);fill-opacity:1;" d="M 76.988281 456.25 L 37.925781 456.25 L 37.925781 436.71875 C 37.925781 425.648438 46.390625 417.183594 57.457031 417.183594 L 76.988281 417.183594 Z M 76.988281 456.25 "/>
<path style=" stroke:none;fill-rule:nonzero;fill:rgb(0%,0%,0%);fill-opacity:1;" d="M 75.851562 417.183594 L 114.914062 417.183594 L 114.914062 456.25 L 75.851562 456.25 Z M 75.851562 417.183594 "/>
<path style=" stroke:none;fill-rule:nonzero;fill:rgb(0%,0%,0%);fill-opacity:1;" d="M 227.554688 417.183594 L 266.621094 417.183594 L 266.621094 456.25 L 227.554688 456.25 Z M 227.554688 417.183594 "/>
<path style=" stroke:none;fill-rule:nonzero;fill:rgb(0%,0%,0%);fill-opacity:1;" d="M 285.011719 456.25 L 265.480469 456.25 L 265.480469 417.183594 L 285.011719 417.183594 C 296.082031 417.183594 304.546875 425.648438 304.546875 436.71875 C 304.546875 447.785156 296.082031 456.25 285.011719 456.25 Z M 285.011719 456.25 "/>
<path style=" stroke:none;fill-rule:nonzero;fill:rgb(0%,0%,0%);fill-opacity:1;" d="M 380.398438 436.71875 C 380.398438 425.929688 371.652344 417.183594 360.863281 417.183594 C 350.078125 417.183594 341.332031 425.929688 341.332031 436.71875 C 341.332031 447.503906 350.078125 456.25 360.863281 456.25 C 371.652344 456.25 380.398438 447.503906 380.398438 436.71875 Z M 380.398438 436.71875 "/>
<path style=" stroke:none;fill-rule:nonzero;fill:rgb(0%,0%,0%);fill-opacity:1;" d="M 456.25 456.25 L 436.71875 456.25 C 425.648438 456.25 417.183594 447.785156 417.183594 436.71875 L 417.183594 417.183594 L 456.25 417.183594 Z M 456.25 456.25 "/>
<path style=" stroke:none;fill-rule:nonzero;fill:rgb(0%,0%,0%);fill-opacity:1;" d="M 474.644531 456.25 L 455.109375 456.25 L 455.109375 417.183594 L 474.644531 417.183594 C 485.710938 417.183594 494.175781 425.648438 494.175781 436.71875 C 494.175781 447.785156 485.710938 456.25 474.644531 456.25 Z M 474.644531 456.25 "/>
<path style=" stroke:none;fill-rule:nonzero;fill:rgb(0%,0%,0%);fill-opacity:1;" d="M 570.027344 456.25 L 550.496094 456.25 C 539.425781 456.25 530.964844 447.785156 530.964844 436.71875 L 530.964844 417.183594 L 570.027344 417.183594 Z M 570.027344 456.25 "/>
<path style=" stroke:none;fill-rule:nonzero;fill:rgb(0%,0%,0%);fill-opacity:1;" d="M 568.890625 417.183594 L 607.953125 417.183594 L 607.953125 456.25 L 568.890625 456.25 Z M 568.890625 417.183594 "/>
<path style=" stroke:none;fill-rule:nonzero;fill:rgb(0%,0%,0%);fill-opacity:1;" d="M 645.878906 456.25 L 606.816406 456.25 L 606.816406 417.183594 L 626.347656 417.183594 C 637.414062 417.183594 645.878906 425.648438 645.878906 436.71875 Z M 645.878906 456.25 "/>
<path style=" stroke:none;fill-rule:nonzero;fill:rgb(0%,0%,0%);fill-opacity:1;" d="M 759.65625 456.25 L 740.125 456.25 C 729.054688 456.25 720.59375 447.785156 720.59375 436.71875 C 720.59375 425.648438 729.054688 417.183594 740.125 417.183594 L 759.65625 417.183594 C 759.65625 417.183594 759.65625 456.25 759.65625 456.25 Z M 759.65625 456.25 "/>
<path style=" stroke:none;fill-rule:nonzero;fill:rgb(0%,0%,0%);fill-opacity:1;" d="M 758.519531 417.183594 L 797.582031 417.183594 L 797.582031 456.25 L 758.519531 456.25 Z M 758.519531 417.183594 "/>
<path style=" stroke:none;fill-rule:nonzero;fill:rgb(0%,0%,0%);fill-opacity:1;" d="M 796.445312 417.183594 L 835.507812 417.183594 L 835.507812 456.25 L 796.445312 456.25 Z M 796.445312 417.183594 "/>
<path style=" stroke:none;fill-rule:nonzero;fill:rgb(0%,0%,0%);fill-opacity:1;" d="M 853.902344 456.25 L 834.371094 456.25 L 834.371094 417.183594 L 853.902344 417.183594 C 864.96875 417.183594 873.433594 425.648438 873.433594 436.71875 C 873.433594 447.785156 864.96875 456.25 853.902344 456.25 Z M 853.902344 456.25 "/>
<path style=" stroke:none;fill-rule:nonzero;fill:rgb(0%,0%,0%);fill-opacity:1;" d="M 949.285156 456.25 L 929.753906 456.25 C 918.6875 456.25 910.222656 447.785156 910.222656 436.71875 L 910.222656 417.183594 L 949.285156 417.183594 Z M 949.285156 456.25 "/>
<path style=" stroke:none;fill-rule:nonzero;fill:rgb(0%,0%,0%);fill-opacity:1;" d="M 987.210938 456.25 L 948.148438 456.25 L 948.148438 417.183594 L 967.679688 417.183594 C 978.75 417.183594 987.210938 425.648438 987.210938 436.71875 Z M 987.210938 456.25 "/>
<path style=" stroke:none;fill-rule:nonzero;fill:rgb(0%,0%,0%);fill-opacity:1;" d="M 76.988281 494.175781 L 57.457031 494.175781 C 46.390625 494.175781 37.925781 485.710938 37.925781 474.644531 L 37.925781 455.109375 L 76.988281 455.109375 Z M 76.988281 494.175781 "/>
<path style=" stroke:none;fill-rule:nonzero;fill:rgb(0%,0%,0%);fill-opacity:1;" d="M 75.851562 455.109375 L 114.914062 455.109375 L 114.914062 494.175781 L 75.851562 494.175781 Z M 75.851562 455.109375 "/>
<path style=" stroke:none;fill-rule:nonzero;fill:rgb(0%,0%,0%);fill-opacity:1;" d="M 190.765625 474.644531 C 190.765625 463.855469 182.023438 455.109375 171.234375 455.109375 C 160.449219 455.109375 151.703125 463.855469 151.703125 474.644531 C 151.703125 485.429688 160.449219 494.175781 171.234375 494.175781 C 182.023438 494.175781 190.765625 485.429688 190.765625 474.644531 Z M 190.765625 474.644531 "/>
<path style=" stroke:none;fill-rule:nonzero;fill:rgb(0%,0%,0%);fill-opacity:1;" d="M 227.554688 455.109375 L 266.621094 455.109375 L 266.621094 494.175781 L 227.554688 494.175781 Z M 227.554688 455.109375 "/>
<path style=" stroke:none;fill-rule:nonzero;fill:rgb(0%,0%,0%);fill-opacity:1;" d="M 418.324219 474.644531 C 418.324219 463.855469 409.578125 455.109375 398.792969 455.109375 C 388.003906 455.109375 379.257812 463.855469 379.257812 474.644531 C 379.257812 485.429688 388.003906 494.175781 398.792969 494.175781 C 409.578125 494.175781 418.324219 485.429688 418.324219 474.644531 Z M 418.324219 474.644531 "/>
<path style=" stroke:none;fill-rule:nonzero;fill:rgb(0%,0%,0%);fill-opacity:1;" d="M 645.878906 494.175781 L 626.347656 494.175781 C 615.277344 494.175781 606.816406 485.710938 606.816406 474.644531 L 606.816406 455.109375 L 645.878906 455.109375 Z M 645.878906 494.175781 "/>
<path style=" stroke:none;fill-rule:nonzero;fill:rgb(0%,0%,0%);fill-opacity:1;" d="M 664.273438 494.175781 L 644.742188 494.175781 L 644.742188 455.109375 L 664.273438 455.109375 C 675.339844 455.109375 683.804688 463.574219 683.804688 474.644531 C 683.804688 485.710938 675.339844 494.175781 664.273438 494.175781 Z M 664.273438 494.175781 "/>
<path style=" stroke:none;fill-rule:nonzero;fill:rgb(0%,0%,0%);fill-opacity:1;" d="M 948.148438 455.109375 L 987.210938 455.109375 L 987.210938 494.175781 L 948.148438 494.175781 Z M 948.148438 455.109375 "/>
<path style=" stroke:none;fill-rule:nonzero;fill:rgb(0%,0%,0%);fill-opacity:1;" d="M 95.382812 532.101562 C 84.316406 532.101562 75.851562 523.636719 75.851562 512.570312 L 75.851562 493.035156 L 114.914062 493.035156 L 114.914062 512.570312 C 114.914062 523.636719 106.453125 532.101562 95.382812 532.101562 Z M 95.382812 532.101562 "/>
<path style=" stroke:none;fill-rule:nonzero;fill:rgb(0%,0%,0%);fill-opacity:1;" d="M 228.691406 532.101562 L 189.628906 532.101562 L 189.628906 512.570312 C 189.628906 501.5 198.09375 493.035156 209.160156 493.035156 L 228.691406 493.035156 Z M 228.691406 532.101562 "/>
<path style=" stroke:none;fill-rule:nonzero;fill:rgb(0%,0%,0%);fill-opacity:1;" d="M 227.554688 493.035156 L 266.621094 493.035156 L 266.621094 532.101562 L 227.554688 532.101562 Z M 227.554688 493.035156 "/>
<path style=" stroke:none;fill-rule:nonzero;fill:rgb(0%,0%,0%);fill-opacity:1;" d="M 285.011719 532.101562 L 265.480469 532.101562 L 265.480469 493.035156 L 285.011719 493.035156 C 296.082031 493.035156 304.546875 501.5 304.546875 512.570312 C 304.546875 523.636719 296.082031 532.101562 285.011719 532.101562 Z M 285.011719 532.101562 "/>
<path style=" stroke:none;fill-rule:nonzero;fill:rgb(0%,0%,0%);fill-opacity:1;" d="M 456.25 532.101562 L 417.183594 532.101562 L 417.183594 512.570312 C 417.183594 501.5 425.648438 493.035156 436.71875 493.035156 L 456.25 493.035156 Z M 456.25 532.101562 "/>
<path style=" stroke:none;fill-rule:nonzero;fill:rgb(0%,0%,0%);fill-opacity:1;" d="M 474.644531 532.101562 L 455.109375 532.101562 L 455.109375 493.035156 L 474.644531 493.035156 C 485.710938 493.035156 494.175781 501.5 494.175781 512.570312 C 494.175781 523.636719 485.710938 532.101562 474.644531 532.101562 Z M 474.644531 532.101562 "/>
<path style=" stroke:none;fill-rule:nonzero;fill:rgb(0%,0%,0%);fill-opacity:1;" d="M 570.027344 532.101562 L 550.496094 532.101562 C 539.425781 532.101562 530.964844 523.636719 530.964844 512.570312 C 530.964844 501.5 539.425781 493.035156 550.496094 493.035156 L 570.027344 493.035156 C 570.027344 493.035156 570.027344 532.101562 570.027344 532.101562 Z M 570.027344 532.101562 "/>
<path style=" stroke:none;fill-rule:nonzero;fill:rgb(0%,0%,0%);fill-opacity:1;" d="M 607.953125 532.101562 L 568.890625 532.101562 L 568.890625 493.035156 L 588.421875 493.035156 C 599.488281 493.035156 607.953125 501.5 607.953125 512.570312 Z M 607.953125 532.101562 "/>
<path style=" stroke:none;fill-rule:nonzero;fill:rgb(0%,0%,0%);fill-opacity:1;" d="M 721.730469 532.101562 L 702.199219 532.101562 C 691.128906 532.101562 682.667969 523.636719 682.667969 512.570312 C 682.667969 501.5 691.128906 493.035156 702.199219 493.035156 L 721.730469 493.035156 C 721.730469 493.035156 721.730469 532.101562 721.730469 532.101562 Z M 721.730469 532.101562 "/>
<path style=" stroke:none;fill-rule:nonzero;fill:rgb(0%,0%,0%);fill-opacity:1;" d="M 740.125 532.101562 L 720.59375 532.101562 L 720.59375 493.035156 L 740.125 493.035156 C 751.191406 493.035156 759.65625 501.5 759.65625 512.570312 C 759.65625 523.636719 751.191406 532.101562 740.125 532.101562 Z M 740.125 532.101562 "/>
<path style=" stroke:none;fill-rule:nonzero;fill:rgb(0%,0%,0%);fill-opacity:1;" d="M 835.507812 512.570312 C 835.507812 501.78125 826.761719 493.035156 815.976562 493.035156 C 805.1875 493.035156 796.445312 501.78125 796.445312 512.570312 C 796.445312 523.355469 805.1875 532.101562 815.976562 532.101562 C 826.761719 532.101562 835.507812 523.355469 835.507812 512.570312 Z M 835.507812 512.570312 "/>
<path style=" stroke:none;fill-rule:nonzero;fill:rgb(0%,0%,0%);fill-opacity:1;" d="M 911.359375 532.101562 L 891.828125 532.101562 C 880.761719 532.101562 872.296875 523.636719 872.296875 512.570312 C 872.296875 501.5 880.761719 493.035156 891.828125 493.035156 L 911.359375 493.035156 C 911.359375 493.035156 911.359375 532.101562 911.359375 532.101562 Z M 911.359375 532.101562 "/>
<path style=" stroke:none;fill-rule:nonzero;fill:rgb(0%,0%,0%);fill-opacity:1;" d="M 910.222656 493.035156 L 949.285156 493.035156 L 949.285156 532.101562 L 910.222656 532.101562 Z M 910.222656 493.035156 "/>
<path style=" stroke:none;fill-rule:nonzero;fill:rgb(0%,0%,0%);fill-opacity:1;" d="M 967.679688 532.101562 L 948.148438 532.101562 L 948.148438 493.035156 L 987.210938 493.035156 L 987.210938 512.570312 C 987.210938 523.636719 978.75 532.101562 967.679688 532.101562 Z M 967.679688 532.101562 "/>
<path style=" stroke:none;fill-rule:nonzero;fill:rgb(0%,0%,0%);fill-opacity:1;" d="M 76.988281 570.027344 L 37.925781 570.027344 L 37.925781 550.496094 C 37.925781 539.425781 46.390625 530.964844 57.457031 530.964844 C 68.527344 530.964844 76.988281 539.425781 76.988281 550.496094 Z M 76.988281 570.027344 "/>
<path style=" stroke:none;fill-rule:nonzero;fill:rgb(0%,0%,0%);fill-opacity:1;" d="M 152.839844 570.027344 L 133.308594 570.027344 C 122.242188 570.027344 113.777344 561.5625 113.777344 550.496094 C 113.777344 539.425781 122.242188 530.964844 133.308594 530.964844 L 152.839844 530.964844 C 152.839844 530.964844 152.839844 570.027344 152.839844 570.027344 Z M 152.839844 570.027344 "/>
<path style=" stroke:none;fill-rule:nonzero;fill:rgb(0%,0%,0%);fill-opacity:1;" d="M 151.703125 530.964844 L 190.765625 530.964844 L 190.765625 570.027344 L 151.703125 570.027344 Z M 151.703125 530.964844 "/>
<path style=" stroke:none;fill-rule:nonzero;fill:rgb(0%,0%,0%);fill-opacity:1;" d="M 209.160156 570.027344 L 189.628906 570.027344 L 189.628906 530.964844 L 228.691406 530.964844 L 228.691406 550.496094 C 228.691406 561.5625 220.230469 570.027344 209.160156 570.027344 Z M 209.160156 570.027344 "/>
<path style=" stroke:none;fill-rule:nonzero;fill:rgb(0%,0%,0%);fill-opacity:1;" d="M 418.324219 570.027344 L 398.792969 570.027344 C 387.722656 570.027344 379.257812 561.5625 379.257812 550.496094 C 379.257812 539.425781 387.722656 530.964844 398.792969 530.964844 L 418.324219 530.964844 C 418.324219 530.964844 418.324219 570.027344 418.324219 570.027344 Z M 418.324219 570.027344 "/>
<path style=" stroke:none;fill-rule:nonzero;fill:rgb(0%,0%,0%);fill-opacity:1;" d="M 436.71875 570.027344 L 417.183594 570.027344 L 417.183594 530.964844 L 456.25 530.964844 L 456.25 550.496094 C 456.25 561.5625 447.785156 570.027344 436.71875 570.027344 Z M 436.71875 570.027344 "/>
<path style=" stroke:none;fill-rule:nonzero;fill:rgb(0%,0%,0%);fill-opacity:1;" d="M 532.101562 550.496094 C 532.101562 539.707031 523.355469 530.964844 512.570312 530.964844 C 501.78125 530.964844 493.035156 539.707031 493.035156 550.496094 C 493.035156 561.28125 501.78125 570.027344 512.570312 570.027344 C 523.355469 570.027344 532.101562 561.28125 532.101562 550.496094 Z M 532.101562 550.496094 "/>
<path style=" stroke:none;fill-rule:nonzero;fill:rgb(0%,0%,0%);fill-opacity:1;" d="M 568.890625 530.964844 L 607.953125 530.964844 L 607.953125 570.027344 L 568.890625 570.027344 Z M 568.890625 530.964844 "/>
<path style=" stroke:none;fill-rule:nonzero;fill:rgb(0%,0%,0%);fill-opacity:1;" d="M 683.804688 550.496094 C 683.804688 539.707031 675.058594 530.964844 664.273438 530.964844 C 653.484375 530.964844 644.742188 539.707031 644.742188 550.496094 C 644.742188 561.28125 653.484375 570.027344 664.273438 570.027344 C 675.058594 570.027344 683.804688 561.28125 683.804688 550.496094 Z M 683.804688 550.496094 "/>
<path style=" stroke:none;fill-rule:nonzero;fill:rgb(0%,0%,0%);fill-opacity:1;" d="M 797.582031 570.027344 L 758.519531 570.027344 L 758.519531 550.496094 C 758.519531 539.425781 766.980469 530.964844 778.050781 530.964844 C 789.117188 530.964844 797.582031 539.425781 797.582031 550.496094 Z M 797.582031 570.027344 "/>
<path style=" stroke:none;fill-rule:nonzero;fill:rgb(0%,0%,0%);fill-opacity:1;" d="M 873.433594 570.027344 L 834.371094 570.027344 L 834.371094 550.496094 C 834.371094 539.425781 842.835938 530.964844 853.902344 530.964844 C 864.96875 530.964844 873.433594 539.425781 873.433594 550.496094 Z M 873.433594 570.027344 "/>
<path style=" stroke:none;fill-rule:nonzero;fill:rgb(0%,0%,0%);fill-opacity:1;" d="M 910.222656 530.964844 L 949.285156 530.964844 L 949.285156 570.027344 L 910.222656 570.027344 Z M 910.222656 530.964844 "/>
<path style=" stroke:none;fill-rule:nonzero;fill:rgb(0%,0%,0%);fill-opacity:1;" d="M 37.925781 568.890625 L 76.988281 568.890625 L 76.988281 607.953125 L 37.925781 607.953125 Z M 37.925781 568.890625 "/>
<path style=" stroke:none;fill-rule:nonzero;fill:rgb(0%,0%,0%);fill-opacity:1;" d="M 266.621094 607.953125 L 247.085938 607.953125 C 236.019531 607.953125 227.554688 599.488281 227.554688 588.421875 C 227.554688 577.351562 236.019531 568.890625 247.085938 568.890625 L 266.621094 568.890625 C 266.621094 568.890625 266.621094 607.953125 266.621094 607.953125 Z M 266.621094 607.953125 "/>
<path style=" stroke:none;fill-rule:nonzero;fill:rgb(0%,0%,0%);fill-opacity:1;" d="M 285.011719 607.953125 L 265.480469 607.953125 L 265.480469 568.890625 L 285.011719 568.890625 C 296.082031 568.890625 304.546875 577.351562 304.546875 588.421875 C 304.546875 599.488281 296.082031 607.953125 285.011719 607.953125 Z M 285.011719 607.953125 "/>
<path style=" stroke:none;fill-rule:nonzero;fill:rgb(0%,0%,0%);fill-opacity:1;" d="M 568.890625 568.890625 L 607.953125 568.890625 L 607.953125 607.953125 L 568.890625 607.953125 Z M 568.890625 568.890625 "/>
<path style=" stroke:none;fill-rule:nonzero;fill:rgb(0%,0%,0%);fill-opacity:1;" d="M 645.878906 607.953125 L 606.816406 607.953125 L 606.816406 568.890625 L 626.347656 568.890625 C 637.414062 568.890625 645.878906 577.351562 645.878906 588.421875 Z M 645.878906 607.953125 "/>
<path style=" stroke:none;fill-rule:nonzero;fill:rgb(0%,0%,0%);fill-opacity:1;" d="M 759.65625 607.953125 L 720.59375 607.953125 L 720.59375 588.421875 C 720.59375 577.351562 729.054688 568.890625 740.125 568.890625 L 759.65625 568.890625 Z M 759.65625 607.953125 "/>
<path style=" stroke:none;fill-rule:nonzero;fill:rgb(0%,0%,0%);fill-opacity:1;" d="M 758.519531 568.890625 L 797.582031 568.890625 L 797.582031 607.953125 L 758.519531 607.953125 Z M 758.519531 568.890625 "/>
<path style=" stroke:none;fill-rule:nonzero;fill:rgb(0%,0%,0%);fill-opacity:1;" d="M 796.445312 568.890625 L 835.507812 568.890625 L 835.507812 607.953125 L 796.445312 607.953125 Z M 796.445312 568.890625 "/>
<path style=" stroke:none;fill-rule:nonzero;fill:rgb(0%,0%,0%);fill-opacity:1;" d="M 853.902344 607.953125 L 834.371094 607.953125 L 834.371094 568.890625 L 873.433594 568.890625 L 873.433594 588.421875 C 873.433594 599.488281 864.96875 607.953125 853.902344 607.953125 Z M 853.902344 607.953125 "/>
<path style=" stroke:none;fill-rule:nonzero;fill:rgb(0%,0%,0%);fill-opacity:1;" d="M 949.285156 607.953125 L 929.753906 607.953125 C 918.6875 607.953125 910.222656 599.488281 910.222656 588.421875 L 910.222656 568.890625 L 949.285156 568.890625 Z M 949.285156 607.953125 "/>
<path style=" stroke:none;fill-rule:nonzero;fill:rgb(0%,0%,0%);fill-opacity:1;" d="M 987.210938 607.953125 L 948.148438 607.953125 L 948.148438 568.890625 L 967.679688 568.890625 C 978.75 568.890625 987.210938 577.351562 987.210938 588.421875 Z M 987.210938 607.953125 "/>
<path style=" stroke:none;fill-rule:nonzero;fill:rgb(0%,0%,0%);fill-opacity:1;" d="M 37.925781 606.816406 L 76.988281 606.816406 L 76.988281 645.878906 L 37.925781 645.878906 Z M 37.925781 606.816406 "/>
<path style=" stroke:none;fill-rule:nonzero;fill:rgb(0%,0%,0%);fill-opacity:1;" d="M 380.398438 645.878906 L 341.332031 645.878906 L 341.332031 626.347656 C 341.332031 615.277344 349.796875 606.816406 360.863281 606.816406 C 371.933594 606.816406 380.398438 615.277344 380.398438 626.347656 Z M 380.398438 645.878906 "/>
<path style=" stroke:none;fill-rule:nonzero;fill:rgb(0%,0%,0%);fill-opacity:1;" d="M 532.101562 645.878906 L 493.035156 645.878906 L 493.035156 626.347656 C 493.035156 615.277344 501.5 606.816406 512.570312 606.816406 C 523.636719 606.816406 532.101562 615.277344 532.101562 626.347656 Z M 532.101562 645.878906 "/>
<path style=" stroke:none;fill-rule:nonzero;fill:rgb(0%,0%,0%);fill-opacity:1;" d="M 568.890625 606.816406 L 607.953125 606.816406 L 607.953125 645.878906 L 568.890625 645.878906 Z M 568.890625 606.816406 "/>
<path style=" stroke:none;fill-rule:nonzero;fill:rgb(0%,0%,0%);fill-opacity:1;" d="M 606.816406 606.816406 L 645.878906 606.816406 L 645.878906 645.878906 L 606.816406 645.878906 Z M 606.816406 606.816406 "/>
<path style=" stroke:none;fill-rule:nonzero;fill:rgb(0%,0%,0%);fill-opacity:1;" d="M 644.742188 606.816406 L 683.804688 606.816406 L 683.804688 645.878906 L 644.742188 645.878906 Z M 644.742188 606.816406 "/>
<path style=" stroke:none;fill-rule:nonzero;fill:rgb(0%,0%,0%);fill-opacity:1;" d="M 682.667969 606.816406 L 721.730469 606.816406 L 721.730469 645.878906 L 682.667969 645.878906 Z M 682.667969 606.816406 "/>
<path style=" stroke:none;fill-rule:nonzero;fill:rgb(0%,0%,0%);fill-opacity:1;" d="M 720.59375 606.816406 L 759.65625 606.816406 L 759.65625 645.878906 L 720.59375 645.878906 Z M 720.59375 606.816406 "/>
<path style=" stroke:none;fill-rule:nonzero;fill:rgb(0%,0%,0%);fill-opacity:1;" d="M 758.519531 606.816406 L 797.582031 606.816406 L 797.582031 645.878906 L 758.519531 645.878906 Z M 758.519531 606.816406 "/>
<path style=" stroke:none;fill-rule:nonzero;fill:rgb(0%,0%,0%);fill-opacity:1;" d="M 796.445312 606.816406 L 835.507812 606.816406 L 835.507812 645.878906 L 796.445312 645.878906 Z M 796.445312 606.816406 "/>
<path style=" stroke:none;fill-rule:nonzero;fill:rgb(0%,0%,0%);fill-opacity:1;" d="M 967.679688 645.878906 C 956.613281 645.878906 948.148438 637.414062 948.148438 626.347656 L 948.148438 606.816406 L 987.210938 606.816406 L 987.210938 626.347656 C 987.210938 637.414062 978.75 645.878906 967.679688 645.878906 Z M 967.679688 645.878906 "/>
<path style=" stroke:none;fill-rule:nonzero;fill:rgb(0%,0%,0%);fill-opacity:1;" d="M 57.457031 683.804688 C 46.390625 683.804688 37.925781 675.339844 37.925781 664.273438 L 37.925781 644.742188 L 76.988281 644.742188 L 76.988281 664.273438 C 76.988281 675.339844 68.527344 683.804688 57.457031 683.804688 Z M 57.457031 683.804688 "/>
<path style=" stroke:none;fill-rule:nonzero;fill:rgb(0%,0%,0%);fill-opacity:1;" d="M 152.839844 683.804688 L 133.308594 683.804688 C 122.242188 683.804688 113.777344 675.339844 113.777344 664.273438 C 113.777344 653.203125 122.242188 644.742188 133.308594 644.742188 L 152.839844 644.742188 C 152.839844 644.742188 152.839844 683.804688 152.839844 683.804688 Z M 152.839844 683.804688 "/>
<path style=" stroke:none;fill-rule:nonzero;fill:rgb(0%,0%,0%);fill-opacity:1;" d="M 171.234375 683.804688 L 151.703125 683.804688 L 151.703125 644.742188 L 171.234375 644.742188 C 182.304688 644.742188 190.765625 653.203125 190.765625 664.273438 C 190.765625 675.339844 182.304688 683.804688 171.234375 683.804688 Z M 171.234375 683.804688 "/>
<path style=" stroke:none;fill-rule:nonzero;fill:rgb(0%,0%,0%);fill-opacity:1;" d="M 304.546875 664.273438 C 304.546875 653.484375 295.800781 644.742188 285.011719 644.742188 C 274.226562 644.742188 265.480469 653.484375 265.480469 664.273438 C 265.480469 675.058594 274.226562 683.804688 285.011719 683.804688 C 295.800781 683.804688 304.546875 675.058594 304.546875 664.273438 Z M 304.546875 664.273438 "/>
<path style=" stroke:none;fill-rule:nonzero;fill:rgb(0%,0%,0%);fill-opacity:1;" d="M 341.332031 644.742188 L 380.398438 644.742188 L 380.398438 683.804688 L 341.332031 683.804688 Z M 341.332031 644.742188 "/>
<path style=" stroke:none;fill-rule:nonzero;fill:rgb(0%,0%,0%);fill-opacity:1;" d="M 379.257812 644.742188 L 418.324219 644.742188 L 418.324219 683.804688 L 379.257812 683.804688 Z M 379.257812 644.742188 "/>
<path style=" stroke:none;fill-rule:nonzero;fill:rgb(0%,0%,0%);fill-opacity:1;" d="M 436.71875 683.804688 L 417.183594 683.804688 L 417.183594 644.742188 L 436.71875 644.742188 C 447.785156 644.742188 456.25 653.203125 456.25 664.273438 C 456.25 675.339844 447.785156 683.804688 436.71875 683.804688 Z M 436.71875 683.804688 "/>
<path style=" stroke:none;fill-rule:nonzero;fill:rgb(0%,0%,0%);fill-opacity:1;" d="M 532.101562 683.804688 L 512.570312 683.804688 C 501.5 683.804688 493.035156 675.339844 493.035156 664.273438 L 493.035156 644.742188 L 532.101562 644.742188 Z M 532.101562 683.804688 "/>
<path style=" stroke:none;fill-rule:nonzero;fill:rgb(0%,0%,0%);fill-opacity:1;" d="M 530.964844 644.742188 L 570.027344 644.742188 L 570.027344 683.804688 L 530.964844 683.804688 Z M 530.964844 644.742188 "/>
<path style=" stroke:none;fill-rule:nonzero;fill:rgb(0%,0%,0%);fill-opacity:1;" d="M 588.421875 683.804688 L 568.890625 683.804688 L 568.890625 644.742188 L 607.953125 644.742188 L 607.953125 664.273438 C 607.953125 675.339844 599.488281 683.804688 588.421875 683.804688 Z M 588.421875 683.804688 "/>
<path style=" stroke:none;fill-rule:nonzero;fill:rgb(0%,0%,0%);fill-opacity:1;" d="M 644.742188 644.742188 L 683.804688 644.742188 L 683.804688 683.804688 L 644.742188 683.804688 Z M 644.742188 644.742188 "/>
<path style=" stroke:none;fill-rule:nonzero;fill:rgb(0%,0%,0%);fill-opacity:1;" d="M 682.667969 644.742188 L 721.730469 644.742188 L 721.730469 683.804688 L 682.667969 683.804688 Z M 682.667969 644.742188 "/>
<path style=" stroke:none;fill-rule:nonzero;fill:rgb(0%,0%,0%);fill-opacity:1;" d="M 720.59375 644.742188 L 759.65625 644.742188 L 759.65625 683.804688 L 720.59375 683.804688 Z M 720.59375 644.742188 "/>
<path style=" stroke:none;fill-rule:nonzero;fill:rgb(0%,0%,0%);fill-opacity:1;" d="M 758.519531 644.742188 L 797.582031 644.742188 L 797.582031 683.804688 L 758.519531 683.804688 Z M 758.519531 644.742188 "/>
<path style=" stroke:none;fill-rule:nonzero;fill:rgb(0%,0%,0%);fill-opacity:1;" d="M 796.445312 644.742188 L 835.507812 644.742188 L 835.507812 683.804688 L 796.445312 683.804688 Z M 796.445312 644.742188 "/>
<path style=" stroke:none;fill-rule:nonzero;fill:rgb(0%,0%,0%);fill-opacity:1;" d="M 911.359375 664.273438 C 911.359375 653.484375 902.617188 644.742188 891.828125 644.742188 C 881.039062 644.742188 872.296875 653.484375 872.296875 664.273438 C 872.296875 675.058594 881.039062 683.804688 891.828125 683.804688 C 902.617188 683.804688 911.359375 675.058594 911.359375 664.273438 Z M 911.359375 664.273438 "/>
<path style=" stroke:none;fill-rule:nonzero;fill:rgb(0%,0%,0%);fill-opacity:1;" d="M 360.863281 721.730469 C 349.796875 721.730469 341.332031 713.265625 341.332031 702.199219 L 341.332031 682.667969 L 380.398438 682.667969 L 380.398438 702.199219 C 380.398438 713.265625 371.933594 721.730469 360.863281 721.730469 Z M 360.863281 721.730469 "/>
<path style=" stroke:none;fill-rule:nonzero;fill:rgb(0%,0%,0%);fill-opacity:1;" d="M 645.878906 721.730469 L 626.347656 721.730469 C 615.277344 721.730469 606.816406 713.265625 606.816406 702.199219 C 606.816406 691.128906 615.277344 682.667969 626.347656 682.667969 L 645.878906 682.667969 C 645.878906 682.667969 645.878906 721.730469 645.878906 721.730469 Z M 645.878906 721.730469 "/>
<path style=" stroke:none;fill-rule:nonzero;fill:rgb(0%,0%,0%);fill-opacity:1;" d="M 644.742188 682.667969 L 683.804688 682.667969 L 683.804688 721.730469 L 644.742188 721.730469 Z M 644.742188 682.667969 "/>
<path style=" stroke:none;fill-rule:nonzero;fill:rgb(0%,0%,0%);fill-opacity:1;" d="M 796.445312 682.667969 L 835.507812 682.667969 L 835.507812 721.730469 L 796.445312 721.730469 Z M 796.445312 682.667969 "/>
<path style=" stroke:none;fill-rule:nonzero;fill:rgb(0%,0%,0%);fill-opacity:1;" d="M 853.902344 721.730469 L 834.371094 721.730469 L 834.371094 682.667969 L 853.902344 682.667969 C 864.96875 682.667969 873.433594 691.128906 873.433594 702.199219 C 873.433594 713.265625 864.96875 721.730469 853.902344 721.730469 Z M 853.902344 721.730469 "/>
<path style=" stroke:none;fill-rule:nonzero;fill:rgb(0%,0%,0%);fill-opacity:1;" d="M 418.324219 759.65625 L 398.792969 759.65625 C 387.722656 759.65625 379.257812 751.191406 379.257812 740.125 C 379.257812 729.054688 387.722656 720.59375 398.792969 720.59375 L 418.324219 720.59375 C 418.324219 720.59375 418.324219 759.65625 418.324219 759.65625 Z M 418.324219 759.65625 "/>
<path style=" stroke:none;fill-rule:nonzero;fill:rgb(0%,0%,0%);fill-opacity:1;" d="M 417.183594 720.59375 L 456.25 720.59375 L 456.25 759.65625 L 417.183594 759.65625 Z M 417.183594 720.59375 "/>
<path style=" stroke:none;fill-rule:nonzero;fill:rgb(0%,0%,0%);fill-opacity:1;" d="M 455.109375 720.59375 L 494.175781 720.59375 L 494.175781 759.65625 L 455.109375 759.65625 Z M 455.109375 720.59375 "/>
<path style=" stroke:none;fill-rule:nonzero;fill:rgb(0%,0%,0%);fill-opacity:1;" d="M 512.570312 759.65625 L 493.035156 759.65625 L 493.035156 720.59375 L 512.570312 720.59375 C 523.636719 720.59375 532.101562 729.054688 532.101562 740.125 C 532.101562 751.191406 523.636719 759.65625 512.570312 759.65625 Z M 512.570312 759.65625 "/>
<path style=" stroke:none;fill-rule:nonzero;fill:rgb(0%,0%,0%);fill-opacity:1;" d="M 644.742188 720.59375 L 683.804688 720.59375 L 683.804688 759.65625 L 644.742188 759.65625 Z M 644.742188 720.59375 "/>
<path style=" stroke:none;fill-rule:nonzero;fill:rgb(0%,0%,0%);fill-opacity:1;" d="M 759.65625 740.125 C 759.65625 729.335938 750.910156 720.59375 740.125 720.59375 C 729.335938 720.59375 720.59375 729.335938 720.59375 740.125 C 720.59375 750.910156 729.335938 759.65625 740.125 759.65625 C 750.910156 759.65625 759.65625 750.910156 759.65625 740.125 Z M 759.65625 740.125 "/>
<path style=" stroke:none;fill-rule:nonzero;fill:rgb(0%,0%,0%);fill-opacity:1;" d="M 796.445312 720.59375 L 835.507812 720.59375 L 835.507812 759.65625 L 796.445312 759.65625 Z M 796.445312 720.59375 "/>
<path style=" stroke:none;fill-rule:nonzero;fill:rgb(0%,0%,0%);fill-opacity:1;" d="M 911.359375 759.65625 L 891.828125 759.65625 C 880.761719 759.65625 872.296875 751.191406 872.296875 740.125 C 872.296875 729.054688 880.761719 720.59375 891.828125 720.59375 L 911.359375 720.59375 C 911.359375 720.59375 911.359375 759.65625 911.359375 759.65625 Z M 911.359375 759.65625 "/>
<path style=" stroke:none;fill-rule:nonzero;fill:rgb(0%,0%,0%);fill-opacity:1;" d="M 910.222656 720.59375 L 949.285156 720.59375 L 949.285156 759.65625 L 910.222656 759.65625 Z M 910.222656 720.59375 "/>
<path style=" stroke:none;fill-rule:nonzero;fill:rgb(0%,0%,0%);fill-opacity:1;" d="M 967.679688 759.65625 L 948.148438 759.65625 L 948.148438 720.59375 L 967.679688 720.59375 C 978.75 720.59375 987.210938 729.054688 987.210938 740.125 C 987.210938 751.191406 978.75 759.65625 967.679688 759.65625 Z M 967.679688 759.65625 "/>
<path style=" stroke:none;fill-rule:nonzero;fill:rgb(0%,0%,0%);fill-opacity:1;" d="M 380.398438 797.582031 L 341.332031 797.582031 L 341.332031 778.050781 C 341.332031 766.980469 349.796875 758.519531 360.863281 758.519531 C 371.933594 758.519531 380.398438 766.980469 380.398438 778.050781 Z M 380.398438 797.582031 "/>
<path style=" stroke:none;fill-rule:nonzero;fill:rgb(0%,0%,0%);fill-opacity:1;" d="M 417.183594 758.519531 L 456.25 758.519531 L 456.25 797.582031 L 417.183594 797.582031 Z M 417.183594 758.519531 "/>
<path style=" stroke:none;fill-rule:nonzero;fill:rgb(0%,0%,0%);fill-opacity:1;" d="M 455.109375 758.519531 L 494.175781 758.519531 L 494.175781 797.582031 L 455.109375 797.582031 Z M 455.109375 758.519531 "/>
<path style=" stroke:none;fill-rule:nonzero;fill:rgb(0%,0%,0%);fill-opacity:1;" d="M 607.953125 778.050781 C 607.953125 767.261719 599.207031 758.519531 588.421875 758.519531 C 577.632812 758.519531 568.890625 767.261719 568.890625 778.050781 C 568.890625 788.835938 577.632812 797.582031 588.421875 797.582031 C 599.207031 797.582031 607.953125 788.835938 607.953125 778.050781 Z M 607.953125 778.050781 "/>
<path style=" stroke:none;fill-rule:nonzero;fill:rgb(0%,0%,0%);fill-opacity:1;" d="M 644.742188 758.519531 L 683.804688 758.519531 L 683.804688 797.582031 L 644.742188 797.582031 Z M 644.742188 758.519531 "/>
<path style=" stroke:none;fill-rule:nonzero;fill:rgb(0%,0%,0%);fill-opacity:1;" d="M 796.445312 758.519531 L 835.507812 758.519531 L 835.507812 797.582031 L 796.445312 797.582031 Z M 796.445312 758.519531 "/>
<path style=" stroke:none;fill-rule:nonzero;fill:rgb(0%,0%,0%);fill-opacity:1;" d="M 853.902344 797.582031 L 834.371094 797.582031 L 834.371094 758.519531 L 853.902344 758.519531 C 864.96875 758.519531 873.433594 766.980469 873.433594 778.050781 C 873.433594 789.117188 864.96875 797.582031 853.902344 797.582031 Z M 853.902344 797.582031 "/>
<path style=" stroke:none;fill-rule:nonzero;fill:rgb(0%,0%,0%);fill-opacity:1;" d="M 341.332031 796.445312 L 380.398438 796.445312 L 380.398438 835.507812 L 341.332031 835.507812 Z M 341.332031 796.445312 "/>
<path style=" stroke:none;fill-rule:nonzero;fill:rgb(0%,0%,0%);fill-opacity:1;" d="M 379.257812 796.445312 L 418.324219 796.445312 L 418.324219 835.507812 L 379.257812 835.507812 Z M 379.257812 796.445312 "/>
<path style=" stroke:none;fill-rule:nonzero;fill:rgb(0%,0%,0%);fill-opacity:1;" d="M 417.183594 796.445312 L 456.25 796.445312 L 456.25 835.507812 L 417.183594 835.507812 Z M 417.183594 796.445312 "/>
<path style=" stroke:none;fill-rule:nonzero;fill:rgb(0%,0%,0%);fill-opacity:1;" d="M 474.644531 835.507812 L 455.109375 835.507812 L 455.109375 796.445312 L 494.175781 796.445312 L 494.175781 815.976562 C 494.175781 827.042969 485.710938 835.507812 474.644531 835.507812 Z M 474.644531 835.507812 "/>
<path style=" stroke:none;fill-rule:nonzero;fill:rgb(0%,0%,0%);fill-opacity:1;" d="M 645.878906 835.507812 L 606.816406 835.507812 L 606.816406 815.976562 C 606.816406 804.910156 615.277344 796.445312 626.347656 796.445312 L 645.878906 796.445312 Z M 645.878906 835.507812 "/>
<path style=" stroke:none;fill-rule:nonzero;fill:rgb(0%,0%,0%);fill-opacity:1;" d="M 644.742188 796.445312 L 683.804688 796.445312 L 683.804688 835.507812 L 644.742188 835.507812 Z M 644.742188 796.445312 "/>
<path style=" stroke:none;fill-rule:nonzero;fill:rgb(0%,0%,0%);fill-opacity:1;" d="M 682.667969 796.445312 L 721.730469 796.445312 L 721.730469 835.507812 L 682.667969 835.507812 Z M 682.667969 796.445312 "/>
<path style=" stroke:none;fill-rule:nonzero;fill:rgb(0%,0%,0%);fill-opacity:1;" d="M 720.59375 796.445312 L 759.65625 796.445312 L 759.65625 835.507812 L 720.59375 835.507812 Z M 720.59375 796.445312 "/>
<path style=" stroke:none;fill-rule:nonzero;fill:rgb(0%,0%,0%);fill-opacity:1;" d="M 758.519531 796.445312 L 797.582031 796.445312 L 797.582031 835.507812 L 758.519531 835.507812 Z M 758.519531 796.445312 "/>
<path style=" stroke:none;fill-rule:nonzero;fill:rgb(0%,0%,0%);fill-opacity:1;" d="M 796.445312 796.445312 L 835.507812 796.445312 L 835.507812 835.507812 L 796.445312 835.507812 Z M 796.445312 796.445312 "/>
<path style=" stroke:none;fill-rule:nonzero;fill:rgb(0%,0%,0%);fill-opacity:1;" d="M 911.359375 835.507812 L 872.296875 835.507812 L 872.296875 815.976562 C 872.296875 804.910156 880.761719 796.445312 891.828125 796.445312 L 911.359375 796.445312 Z M 911.359375 835.507812 "/>
<path style=" stroke:none;fill-rule:nonzero;fill:rgb(0%,0%,0%);fill-opacity:1;" d="M 910.222656 796.445312 L 949.285156 796.445312 L 949.285156 835.507812 L 910.222656 835.507812 Z M 910.222656 796.445312 "/>
<path style=" stroke:none;fill-rule:nonzero;fill:rgb(0%,0%,0%);fill-opacity:1;" d="M 987.210938 835.507812 L 948.148438 835.507812 L 948.148438 796.445312 L 967.679688 796.445312 C 978.75 796.445312 987.210938 804.910156 987.210938 815.976562 Z M 987.210938 835.507812 "/>
<path style=" stroke:none;fill-rule:nonzero;fill:rgb(0%,0%,0%);fill-opacity:1;" d="M 341.332031 834.371094 L 380.398438 834.371094 L 380.398438 873.433594 L 341.332031 873.433594 Z M 341.332031 834.371094 "/>
<path style=" stroke:none;fill-rule:nonzero;fill:rgb(0%,0%,0%);fill-opacity:1;" d="M 532.101562 873.433594 L 512.570312 873.433594 C 501.5 873.433594 493.035156 864.96875 493.035156 853.902344 C 493.035156 842.835938 501.5 834.371094 512.570312 834.371094 L 532.101562 834.371094 C 532.101562 834.371094 532.101562 873.433594 532.101562 873.433594 Z M 532.101562 873.433594 "/>
<path style=" stroke:none;fill-rule:nonzero;fill:rgb(0%,0%,0%);fill-opacity:1;" d="M 570.027344 873.433594 L 530.964844 873.433594 L 530.964844 834.371094 L 550.496094 834.371094 C 561.5625 834.371094 570.027344 842.835938 570.027344 853.902344 Z M 570.027344 873.433594 "/>
<path style=" stroke:none;fill-rule:nonzero;fill:rgb(0%,0%,0%);fill-opacity:1;" d="M 626.347656 873.433594 C 615.277344 873.433594 606.816406 864.96875 606.816406 853.902344 L 606.816406 834.371094 L 645.878906 834.371094 L 645.878906 853.902344 C 645.878906 864.96875 637.414062 873.433594 626.347656 873.433594 Z M 626.347656 873.433594 "/>
<path style=" stroke:none;fill-rule:nonzero;fill:rgb(0%,0%,0%);fill-opacity:1;" d="M 721.730469 873.433594 L 702.199219 873.433594 C 691.128906 873.433594 682.667969 864.96875 682.667969 853.902344 L 682.667969 834.371094 L 721.730469 834.371094 Z M 721.730469 873.433594 "/>
<path style=" stroke:none;fill-rule:nonzero;fill:rgb(0%,0%,0%);fill-opacity:1;" d="M 740.125 873.433594 L 720.59375 873.433594 L 720.59375 834.371094 L 759.65625 834.371094 L 759.65625 853.902344 C 759.65625 864.96875 751.191406 873.433594 740.125 873.433594 Z M 740.125 873.433594 "/>
<path style=" stroke:none;fill-rule:nonzero;fill:rgb(0%,0%,0%);fill-opacity:1;" d="M 835.507812 873.433594 L 815.976562 873.433594 C 804.910156 873.433594 796.445312 864.96875 796.445312 853.902344 L 796.445312 834.371094 L 835.507812 834.371094 Z M 835.507812 873.433594 "/>
<path style=" stroke:none;fill-rule:nonzero;fill:rgb(0%,0%,0%);fill-opacity:1;" d="M 834.371094 834.371094 L 873.433594 834.371094 L 873.433594 873.433594 L 834.371094 873.433594 Z M 834.371094 834.371094 "/>
<path style=" stroke:none;fill-rule:nonzero;fill:rgb(0%,0%,0%);fill-opacity:1;" d="M 872.296875 834.371094 L 911.359375 834.371094 L 911.359375 873.433594 L 872.296875 873.433594 Z M 872.296875 834.371094 "/>
<path style=" stroke:none;fill-rule:nonzero;fill:rgb(0%,0%,0%);fill-opacity:1;" d="M 910.222656 834.371094 L 949.285156 834.371094 L 949.285156 873.433594 L 910.222656 873.433594 Z M 910.222656 834.371094 "/>
<path style=" stroke:none;fill-rule:nonzero;fill:rgb(0%,0%,0%);fill-opacity:1;" d="M 948.148438 834.371094 L 987.210938 834.371094 L 987.210938 873.433594 L 948.148438 873.433594 Z M 948.148438 834.371094 "/>
<path style=" stroke:none;fill-rule:nonzero;fill:rgb(0%,0%,0%);fill-opacity:1;" d="M 380.398438 911.359375 L 360.863281 911.359375 C 349.796875 911.359375 341.332031 902.894531 341.332031 891.828125 L 341.332031 872.296875 L 380.398438 872.296875 Z M 380.398438 911.359375 "/>
<path style=" stroke:none;fill-rule:nonzero;fill:rgb(0%,0%,0%);fill-opacity:1;" d="M 418.324219 911.359375 L 379.257812 911.359375 L 379.257812 872.296875 L 398.792969 872.296875 C 409.859375 872.296875 418.324219 880.761719 418.324219 891.828125 Z M 418.324219 911.359375 "/>
<path style=" stroke:none;fill-rule:nonzero;fill:rgb(0%,0%,0%);fill-opacity:1;" d="M 530.964844 872.296875 L 570.027344 872.296875 L 570.027344 911.359375 L 530.964844 911.359375 Z M 530.964844 872.296875 "/>
<path style=" stroke:none;fill-rule:nonzero;fill:rgb(0%,0%,0%);fill-opacity:1;" d="M 588.421875 911.359375 L 568.890625 911.359375 L 568.890625 872.296875 L 588.421875 872.296875 C 599.488281 872.296875 607.953125 880.761719 607.953125 891.828125 C 607.953125 902.894531 599.488281 911.359375 588.421875 911.359375 Z M 588.421875 911.359375 "/>
<path style=" stroke:none;fill-rule:nonzero;fill:rgb(0%,0%,0%);fill-opacity:1;" d="M 834.371094 872.296875 L 873.433594 872.296875 L 873.433594 911.359375 L 834.371094 911.359375 Z M 834.371094 872.296875 "/>
<path style=" stroke:none;fill-rule:nonzero;fill:rgb(0%,0%,0%);fill-opacity:1;" d="M 891.828125 911.359375 L 872.296875 911.359375 L 872.296875 872.296875 L 911.359375 872.296875 L 911.359375 891.828125 C 911.359375 902.894531 902.894531 911.359375 891.828125 911.359375 Z M 891.828125 911.359375 "/>
<path style=" stroke:none;fill-rule:nonzero;fill:rgb(0%,0%,0%);fill-opacity:1;" d="M 948.148438 872.296875 L 987.210938 872.296875 L 987.210938 911.359375 L 948.148438 911.359375 Z M 948.148438 872.296875 "/>
<path style=" stroke:none;fill-rule:nonzero;fill:rgb(0%,0%,0%);fill-opacity:1;" d="M 418.324219 949.285156 L 398.792969 949.285156 C 387.722656 949.285156 379.257812 940.820312 379.257812 929.753906 L 379.257812 910.222656 L 418.324219 910.222656 Z M 418.324219 949.285156 "/>
<path style=" stroke:none;fill-rule:nonzero;fill:rgb(0%,0%,0%);fill-opacity:1;" d="M 436.71875 949.285156 L 417.183594 949.285156 L 417.183594 910.222656 L 436.71875 910.222656 C 447.785156 910.222656 456.25 918.6875 456.25 929.753906 C 456.25 940.820312 447.785156 949.285156 436.71875 949.285156 Z M 436.71875 949.285156 "/>
<path style=" stroke:none;fill-rule:nonzero;fill:rgb(0%,0%,0%);fill-opacity:1;" d="M 532.101562 949.285156 L 493.035156 949.285156 L 493.035156 929.753906 C 493.035156 918.6875 501.5 910.222656 512.570312 910.222656 L 532.101562 910.222656 Z M 532.101562 949.285156 "/>
<path style=" stroke:none;fill-rule:nonzero;fill:rgb(0%,0%,0%);fill-opacity:1;" d="M 550.496094 949.285156 L 530.964844 949.285156 L 530.964844 910.222656 L 570.027344 910.222656 L 570.027344 929.753906 C 570.027344 940.820312 561.5625 949.285156 550.496094 949.285156 Z M 550.496094 949.285156 "/>
<path style=" stroke:none;fill-rule:nonzero;fill:rgb(0%,0%,0%);fill-opacity:1;" d="M 683.804688 949.285156 L 664.273438 949.285156 C 653.203125 949.285156 644.742188 940.820312 644.742188 929.753906 C 644.742188 918.6875 653.203125 910.222656 664.273438 910.222656 L 683.804688 910.222656 C 683.804688 910.222656 683.804688 949.285156 683.804688 949.285156 Z M 683.804688 949.285156 "/>
<path style=" stroke:none;fill-rule:nonzero;fill:rgb(0%,0%,0%);fill-opacity:1;" d="M 682.667969 910.222656 L 721.730469 910.222656 L 721.730469 949.285156 L 682.667969 949.285156 Z M 682.667969 910.222656 "/>
<path style=" stroke:none;fill-rule:nonzero;fill:rgb(0%,0%,0%);fill-opacity:1;" d="M 720.59375 910.222656 L 759.65625 910.222656 L 759.65625 949.285156 L 720.59375 949.285156 Z M 720.59375 910.222656 "/>
<path style=" stroke:none;fill-rule:nonzero;fill:rgb(0%,0%,0%);fill-opacity:1;" d="M 758.519531 910.222656 L 797.582031 910.222656 L 797.582031 949.285156 L 758.519531 949.285156 Z M 758.519531 910.222656 "/>
<path style=" stroke:none;fill-rule:nonzero;fill:rgb(0%,0%,0%);fill-opacity:1;" d="M 796.445312 910.222656 L 835.507812 910.222656 L 835.507812 949.285156 L 796.445312 949.285156 Z M 796.445312 910.222656 "/>
<path style=" stroke:none;fill-rule:nonzero;fill:rgb(0%,0%,0%);fill-opacity:1;" d="M 834.371094 910.222656 L 873.433594 910.222656 L 873.433594 949.285156 L 834.371094 949.285156 Z M 834.371094 910.222656 "/>
<path style=" stroke:none;fill-rule:nonzero;fill:rgb(0%,0%,0%);fill-opacity:1;" d="M 948.148438 910.222656 L 987.210938 910.222656 L 987.210938 949.285156 L 948.148438 949.285156 Z M 948.148438 910.222656 "/>
<path style=" stroke:none;fill-rule:nonzero;fill:rgb(0%,0%,0%);fill-opacity:1;" d="M 380.398438 967.679688 C 380.398438 956.894531 371.652344 948.148438 360.863281 948.148438 C 350.078125 948.148438 341.332031 956.894531 341.332031 967.679688 C 341.332031 978.46875 350.078125 987.210938 360.863281 987.210938 C 371.652344 987.210938 380.398438 978.46875 380.398438 967.679688 Z M 380.398438 967.679688 "/>
<path style=" stroke:none;fill-rule:nonzero;fill:rgb(0%,0%,0%);fill-opacity:1;" d="M 512.570312 987.210938 C 501.5 987.210938 493.035156 978.75 493.035156 967.679688 L 493.035156 948.148438 L 532.101562 948.148438 L 532.101562 967.679688 C 532.101562 978.75 523.636719 987.210938 512.570312 987.210938 Z M 512.570312 987.210938 "/>
<path style=" stroke:none;fill-rule:nonzero;fill:rgb(0%,0%,0%);fill-opacity:1;" d="M 607.953125 967.679688 C 607.953125 956.894531 599.207031 948.148438 588.421875 948.148438 C 577.632812 948.148438 568.890625 956.894531 568.890625 967.679688 C 568.890625 978.46875 577.632812 987.210938 588.421875 987.210938 C 599.207031 987.210938 607.953125 978.46875 607.953125 967.679688 Z M 607.953125 967.679688 "/>
<path style=" stroke:none;fill-rule:nonzero;fill:rgb(0%,0%,0%);fill-opacity:1;" d="M 797.582031 987.210938 L 778.050781 987.210938 C 766.980469 987.210938 758.519531 978.75 758.519531 967.679688 L 758.519531 948.148438 L 797.582031 948.148438 Z M 797.582031 987.210938 "/>
<path style=" stroke:none;fill-rule:nonzero;fill:rgb(0%,0%,0%);fill-opacity:1;" d="M 796.445312 948.148438 L 835.507812 948.148438 L 835.507812 987.210938 L 796.445312 987.210938 Z M 796.445312 948.148438 "/>
<path style=" stroke:none;fill-rule:nonzero;fill:rgb(0%,0%,0%);fill-opacity:1;" d="M 834.371094 948.148438 L 873.433594 948.148438 L 873.433594 987.210938 L 834.371094 987.210938 Z M 834.371094 948.148438 "/>
<path style=" stroke:none;fill-rule:nonzero;fill:rgb(0%,0%,0%);fill-opacity:1;" d="M 872.296875 948.148438 L 911.359375 948.148438 L 911.359375 987.210938 L 872.296875 987.210938 Z M 872.296875 948.148438 "/>
<path style=" stroke:none;fill-rule:nonzero;fill:rgb(0%,0%,0%);fill-opacity:1;" d="M 910.222656 948.148438 L 949.285156 948.148438 L 949.285156 987.210938 L 910.222656 987.210938 Z M 910.222656 948.148438 "/>
<path style=" stroke:none;fill-rule:nonzero;fill:rgb(0%,0%,0%);fill-opacity:1;" d="M 967.679688 987.210938 L 948.148438 987.210938 L 948.148438 948.148438 L 987.210938 948.148438 L 987.210938 967.679688 C 987.210938 978.75 978.75 987.210938 967.679688 987.210938 Z M 967.679688 987.210938 "/>
<path style=" stroke:none;fill-rule:nonzero;fill:rgb(0%,0%,0%);fill-opacity:1;" d="M 123.257812 303.40625 L 219.96875 303.40625 C 265.480469 303.40625 303.40625 265.480469 303.40625 219.96875 L 303.40625 123.257812 C 303.40625 75.851562 265.480469 37.925781 218.074219 37.925781 L 121.363281 37.925781 C 75.851562 37.925781 37.925781 75.851562 37.925781 121.363281 L 37.925781 218.074219 C 37.925781 265.480469 75.851562 303.40625 123.257812 303.40625 Z M 265.480469 128.949219 L 265.480469 212.386719 C 265.480469 240.828125 240.828125 265.480469 212.386719 265.480469 L 128.949219 265.480469 C 98.605469 265.480469 75.851562 242.726562 75.851562 212.386719 L 75.851562 128.949219 C 75.851562 100.503906 100.503906 75.851562 128.949219 75.851562 L 212.386719 75.851562 C 242.726562 75.851562 265.480469 98.605469 265.480469 128.949219 Z M 265.480469 128.949219 "/>
<path style=" stroke:none;fill-rule:nonzero;fill:rgb(0%,0%,0%);fill-opacity:1;" d="M 805.925781 303.40625 L 902.636719 303.40625 C 948.148438 303.40625 986.074219 265.480469 986.074219 219.96875 L 986.074219 123.257812 C 986.074219 75.851562 948.148438 37.925781 900.742188 37.925781 L 804.03125 37.925781 C 758.519531 37.925781 720.59375 75.851562 720.59375 121.363281 L 720.59375 218.074219 C 720.59375 265.480469 758.519531 303.40625 805.925781 303.40625 Z M 948.148438 128.949219 L 948.148438 212.386719 C 948.148438 240.828125 923.496094 265.480469 895.050781 265.480469 L 811.613281 265.480469 C 781.273438 265.480469 758.519531 242.726562 758.519531 212.386719 L 758.519531 128.949219 C 758.519531 100.503906 783.171875 75.851562 811.613281 75.851562 L 895.050781 75.851562 C 925.394531 75.851562 948.148438 98.605469 948.148438 128.949219 Z M 948.148438 128.949219 "/>
<path style=" stroke:none;fill-rule:nonzero;fill:rgb(0%,0%,0%);fill-opacity:1;" d="M 123.257812 986.074219 L 219.96875 986.074219 C 265.480469 986.074219 303.40625 948.148438 303.40625 902.636719 L 303.40625 805.925781 C 303.40625 758.519531 265.480469 720.59375 218.074219 720.59375 L 121.363281 720.59375 C 75.851562 720.59375 37.925781 758.519531 37.925781 804.03125 L 37.925781 900.742188 C 37.925781 948.148438 75.851562 986.074219 123.257812 986.074219 Z M 265.480469 811.613281 L 265.480469 895.050781 C 265.480469 923.496094 240.828125 948.148438 212.386719 948.148438 L 128.949219 948.148438 C 98.605469 948.148438 75.851562 925.394531 75.851562 895.050781 L 75.851562 811.613281 C 75.851562 783.171875 100.503906 758.519531 128.949219 758.519531 L 212.386719 758.519531 C 242.726562 758.519531 265.480469 781.273438 265.480469 811.613281 Z M 265.480469 811.613281 "/>
<path style=" stroke:none;fill-rule:nonzero;fill:rgb(0%,0%,0%);fill-opacity:1;" d="M 227.554688 146.015625 L 227.554688 197.214844 C 227.554688 212.386719 212.386719 227.554688 195.320312 227.554688 L 146.015625 227.554688 C 127.050781 227.554688 113.777344 214.28125 113.777344 195.320312 L 113.777344 146.015625 C 113.777344 128.949219 128.949219 113.777344 146.015625 113.777344 L 197.214844 113.777344 C 214.28125 113.777344 227.554688 127.050781 227.554688 146.015625 Z M 227.554688 146.015625 "/>
<path style=" stroke:none;fill-rule:nonzero;fill:rgb(0%,0%,0%);fill-opacity:1;" d="M 910.222656 146.015625 L 910.222656 197.214844 C 910.222656 212.386719 895.050781 227.554688 877.984375 227.554688 L 828.679688 227.554688 C 809.71875 227.554688 796.445312 214.28125 796.445312 195.320312 L 796.445312 146.015625 C 796.445312 128.949219 811.613281 113.777344 828.679688 113.777344 L 879.882812 113.777344 C 896.949219 113.777344 910.222656 127.050781 910.222656 146.015625 Z M 910.222656 146.015625 "/>
<path style=" stroke:none;fill-rule:nonzero;fill:rgb(0%,0%,0%);fill-opacity:1;" d="M 227.554688 828.679688 L 227.554688 879.882812 C 227.554688 895.050781 212.386719 910.222656 195.320312 910.222656 L 146.015625 910.222656 C 127.050781 910.222656 113.777344 896.949219 113.777344 877.984375 L 113.777344 828.679688 C 113.777344 811.613281 128.949219 796.445312 146.015625 796.445312 L 197.214844 796.445312 C 214.28125 796.445312 227.554688 809.71875 227.554688 828.679688 Z M 227.554688 828.679688 "/>
</g>
</svg>
